<svg xmlns="http://www.w3.org/2000/svg" height="48" viewBox="0 -960 960 960" width="48"><path d="M173.384-266q-28.42 0-48.402-20.301T105-334.639v-291.722q0-28.037 19.982-48.338Q144.964-695 173.384-695h615.232q27.782 0 48.083 20.301T857-626.361v291.722q0 28.037-20.301 48.338Q816.398-266 788.616-266H173.384Zm0-43.769h615.232q9.23 0 16.923-7.692 7.692-7.693 7.692-16.923v-292.232q0-9.23-7.692-16.923-7.693-7.692-16.923-7.692H173.384q-9.23 0-16.923 7.692-7.692 7.693-7.692 16.923v292.232q0 9.23 7.692 16.923 7.693 7.692 16.923 7.692Zm124.231-69.923h43.77v-78.923h78.923v-43.77h-78.923v-79.923h-43.77v79.923h-79.923v43.77h79.923v78.923Zm285.371-7q13.476 0 23.129-9.564 9.654-9.563 9.654-23.423 0-13.859-9.563-23.513-9.563-9.654-23.039-9.654-13.475 0-23.513 9.563-10.039 9.564-10.039 23.423 0 13.86 10.109 23.514 10.108 9.654 23.262 9.654ZM689.14-508.385q13.475 0 23.129-9.063 9.654-9.063 9.654-23.923 0-13.86-9.563-23.514-9.564-9.654-23.039-9.654-13.475 0-23.513 9.564-10.039 9.563-10.039 23.423 0 14.86 10.108 24.014 10.109 9.153 23.263 9.153ZM148.769-309.769V-651.231-309.769Z"/></svg>